{
    "asset" : {
        "generator" : "Khronos glTF Blender I/O v1.4.40",
        "version" : "2.0"
    },
    "scene" : 0,
    "scenes" : [
        {
            "name" : "Scene",
            "nodes" : [
                6,
                7,
                8
            ]
        }
    ],
    "nodes" : [
        {
            "mesh" : 0,
            "name" : "Mesh_0"
        },
        {
            "mesh" : 1,
            "name" : "Mesh_1"
        },
        {
            "mesh" : 2,
            "name" : "Mesh_2"
        },
        {
            "mesh" : 3,
            "name" : "Mesh_3"
        },
        {
            "children" : [
                0,
                1,
                2,
                3
            ],
            "name" : "Aloe_plant_potted.obj.cleaner.materialmerger.gles"
        },
        {
            "children" : [
                4
            ],
            "name" : "RootNode (model correction matrix)"
        },
        {
            "children" : [
                5
            ],
            "name" : "RootNode (gltf orientation matrix)",
            "rotation" : [
                -0.7071068286895752,
                0,
                0,
                0.7071068286895752
            ],
            "scale" : [
                1.9131572246551514,
                1.9131572246551514,
                1.9038640260696411
            ]
        },
        {
            "name" : "Light",
            "rotation" : [
                0.16907575726509094,
                0.7558803558349609,
                -0.27217137813568115,
                0.570947527885437
            ],
            "translation" : [
                4.076245307922363,
                5.903861999511719,
                -1.0054539442062378
            ]
        },
        {
            "name" : "Camera",
            "rotation" : [
                0.483536034822464,
                0.33687159419059753,
                -0.20870360732078552,
                0.7804827094078064
            ],
            "translation" : [
                7.358891487121582,
                4.958309173583984,
                6.925790786743164
            ]
        }
    ],
    "materials" : [
        {
            "doubleSided" : true,
            "name" : "blinn3SG",
            "pbrMetallicRoughness" : {
                "baseColorTexture" : {
                    "index" : 0,
                    "texCoord" : 0
                },
                "metallicFactor" : 0,
                "roughnessFactor" : 0.6000000238418579
            }
        },
        {
            "doubleSided" : true,
            "name" : "blinn4SG",
            "pbrMetallicRoughness" : {
                "baseColorTexture" : {
                    "index" : 1,
                    "texCoord" : 0
                },
                "metallicFactor" : 0
            }
        },
        {
            "doubleSided" : true,
            "name" : "blinn1SG",
            "pbrMetallicRoughness" : {
                "baseColorTexture" : {
                    "index" : 2,
                    "texCoord" : 0
                },
                "metallicFactor" : 0,
                "roughnessFactor" : 0.6000000238418579
            }
        },
        {
            "doubleSided" : true,
            "name" : "blinn2SG",
            "pbrMetallicRoughness" : {
                "baseColorTexture" : {
                    "index" : 3,
                    "texCoord" : 0
                },
                "metallicFactor" : 0,
                "roughnessFactor" : 0.6000000238418579
            }
        }
    ],
    "meshes" : [
        {
            "name" : "Mesh_0",
            "primitives" : [
                {
                    "attributes" : {
                        "POSITION" : 0,
                        "NORMAL" : 1,
                        "TEXCOORD_0" : 2
                    },
                    "indices" : 3,
                    "material" : 0
                }
            ]
        },
        {
            "name" : "Mesh_1",
            "primitives" : [
                {
                    "attributes" : {
                        "POSITION" : 4,
                        "NORMAL" : 5,
                        "TEXCOORD_0" : 6
                    },
                    "indices" : 7,
                    "material" : 1
                }
            ]
        },
        {
            "name" : "Mesh_2",
            "primitives" : [
                {
                    "attributes" : {
                        "POSITION" : 8,
                        "NORMAL" : 9,
                        "TEXCOORD_0" : 10
                    },
                    "indices" : 11,
                    "material" : 2
                }
            ]
        },
        {
            "name" : "Mesh_3",
            "primitives" : [
                {
                    "attributes" : {
                        "POSITION" : 12,
                        "NORMAL" : 13,
                        "TEXCOORD_0" : 14
                    },
                    "indices" : 15,
                    "material" : 3
                }
            ]
        }
    ],
    "textures" : [
        {
            "sampler" : 0,
            "source" : 0
        },
        {
            "sampler" : 0,
            "source" : 1
        },
        {
            "sampler" : 0,
            "source" : 2
        },
        {
            "sampler" : 0,
            "source" : 3
        }
    ],
    "images" : [
        {
            "bufferView" : 4,
            "mimeType" : "image/jpeg",
            "name" : "blinn3SG_baseColor"
        },
        {
            "bufferView" : 9,
            "mimeType" : "image/jpeg",
            "name" : "blinn4SG_baseColor"
        },
        {
            "bufferView" : 14,
            "mimeType" : "image/jpeg",
            "name" : "blinn1SG_baseColor"
        },
        {
            "bufferView" : 19,
            "mimeType" : "image/jpeg",
            "name" : "blinn2SG_baseColor"
        }
    ],
    "accessors" : [
        {
            "bufferView" : 0,
            "componentType" : 5126,
            "count" : 359,
            "max" : [
                15,
                14.772116661071777,
                16.918869018554688
            ],
            "min" : [
                -15,
                -14.772116661071777,
                0
            ],
            "type" : "VEC3"
        },
        {
            "bufferView" : 1,
            "componentType" : 5126,
            "count" : 359,
            "type" : "VEC3"
        },
        {
            "bufferView" : 2,
            "componentType" : 5126,
            "count" : 359,
            "type" : "VEC2"
        },
        {
            "bufferView" : 3,
            "componentType" : 5123,
            "count" : 1296,
            "type" : "SCALAR"
        },
        {
            "bufferView" : 5,
            "componentType" : 5126,
            "count" : 207,
            "max" : [
                13.5,
                13.5,
                14.043500900268555
            ],
            "min" : [
                -13.5,
                -13.5,
                14.043500900268555
            ],
            "type" : "VEC3"
        },
        {
            "bufferView" : 6,
            "componentType" : 5126,
            "count" : 207,
            "type" : "VEC3"
        },
        {
            "bufferView" : 7,
            "componentType" : 5126,
            "count" : 207,
            "type" : "VEC2"
        },
        {
            "bufferView" : 8,
            "componentType" : 5123,
            "count" : 288,
            "type" : "SCALAR"
        },
        {
            "bufferView" : 10,
            "componentType" : 5126,
            "count" : 4604,
            "max" : [
                26.33449935913086,
                26.33449935913086,
                52.88234329223633
            ],
            "min" : [
                -26.33449935913086,
                -26.33449935913086,
                10.623655319213867
            ],
            "type" : "VEC3"
        },
        {
            "bufferView" : 11,
            "componentType" : 5126,
            "count" : 4604,
            "type" : "VEC3"
        },
        {
            "bufferView" : 12,
            "componentType" : 5126,
            "count" : 4604,
            "type" : "VEC2"
        },
        {
            "bufferView" : 13,
            "componentType" : 5123,
            "count" : 19824,
            "type" : "SCALAR"
        },
        {
            "bufferView" : 15,
            "componentType" : 5126,
            "count" : 1783,
            "max" : [
                7.391078948974609,
                7.391078948974609,
                48.644290924072266
            ],
            "min" : [
                -4.542390823364258,
                -7.391078948974609,
                11.058369636535645
            ],
            "type" : "VEC3"
        },
        {
            "bufferView" : 16,
            "componentType" : 5126,
            "count" : 1783,
            "type" : "VEC3"
        },
        {
            "bufferView" : 17,
            "componentType" : 5126,
            "count" : 1783,
            "type" : "VEC2"
        },
        {
            "bufferView" : 18,
            "componentType" : 5123,
            "count" : 7662,
            "type" : "SCALAR"
        }
    ],
    "bufferViews" : [
        {
            "buffer" : 0,
            "byteLength" : 4308,
            "byteOffset" : 0
        },
        {
            "buffer" : 0,
            "byteLength" : 4308,
            "byteOffset" : 4308
        },
        {
            "buffer" : 0,
            "byteLength" : 2872,
            "byteOffset" : 8616
        },
        {
            "buffer" : 0,
            "byteLength" : 2592,
            "byteOffset" : 11488
        },
        {
            "buffer" : 0,
            "byteLength" : 32314,
            "byteOffset" : 14080
        },
        {
            "buffer" : 0,
            "byteLength" : 2484,
            "byteOffset" : 46396
        },
        {
            "buffer" : 0,
            "byteLength" : 2484,
            "byteOffset" : 48880
        },
        {
            "buffer" : 0,
            "byteLength" : 1656,
            "byteOffset" : 51364
        },
        {
            "buffer" : 0,
            "byteLength" : 576,
            "byteOffset" : 53020
        },
        {
            "buffer" : 0,
            "byteLength" : 804125,
            "byteOffset" : 53596
        },
        {
            "buffer" : 0,
            "byteLength" : 55248,
            "byteOffset" : 857724
        },
        {
            "buffer" : 0,
            "byteLength" : 55248,
            "byteOffset" : 912972
        },
        {
            "buffer" : 0,
            "byteLength" : 36832,
            "byteOffset" : 968220
        },
        {
            "buffer" : 0,
            "byteLength" : 39648,
            "byteOffset" : 1005052
        },
        {
            "buffer" : 0,
            "byteLength" : 52083,
            "byteOffset" : 1044700
        },
        {
            "buffer" : 0,
            "byteLength" : 21396,
            "byteOffset" : 1096784
        },
        {
            "buffer" : 0,
            "byteLength" : 21396,
            "byteOffset" : 1118180
        },
        {
            "buffer" : 0,
            "byteLength" : 14264,
            "byteOffset" : 1139576
        },
        {
            "buffer" : 0,
            "byteLength" : 15324,
            "byteOffset" : 1153840
        },
        {
            "buffer" : 0,
            "byteLength" : 320991,
            "byteOffset" : 1169164
        }
    ],
    "samplers" : [
        {
            "magFilter" : 9729,
            "minFilter" : 9986
        }
    ],
    "buffers" : [
        {
            "byteLength" : 1490156,
            "uri" : "data:application/octet-stream;base64,"
        }
    ]
}
