{
    "asset" : {
        "generator" : "Khronos glTF Blender I/O v1.4.40",
        "version" : "2.0"
    },
    "scene" : 0,
    "scenes" : [
        {
            "name" : "Scene",
            "nodes" : [
                20,
                21,
                22,
                23,
                24
            ]
        }
    ],
    "nodes" : [
        {
            "name" : "Circle_0"
        },
        {
            "mesh" : 0,
            "name" : "Mesh_2"
        },
        {
            "children" : [
                1
            ],
            "name" : "Cube.001_1",
            "translation" : [
                0,
                0.9431315660476685,
                0
            ]
        },
        {
            "mesh" : 1,
            "name" : "Mesh_1"
        },
        {
            "mesh" : 2,
            "name" : "Mesh_5"
        },
        {
            "mesh" : 3,
            "name" : "Mesh_6"
        },
        {
            "children" : [
                4,
                5
            ],
            "name" : "Plane.001_3",
            "rotation" : [
                0.0665605217218399,
                0.9957227110862732,
                -0.001440865802578628,
                0.06406194716691971
            ],
            "translation" : [
                0.030322229489684105,
                0.7169210314750671,
                -0.027096496894955635
            ]
        },
        {
            "mesh" : 4,
            "name" : "Mesh_7"
        },
        {
            "mesh" : 5,
            "name" : "Mesh_8"
        },
        {
            "children" : [
                7,
                8
            ],
            "name" : "Plane.002_4",
            "rotation" : [
                -0.11993302404880524,
                -0.960130512714386,
                0.021934539079666138,
                0.25156369805336
            ],
            "translation" : [
                0.11296507716178894,
                0.7216026782989502,
                -0.007101317401975393
            ]
        },
        {
            "mesh" : 6,
            "name" : "Mesh_10"
        },
        {
            "mesh" : 7,
            "name" : "Mesh_9"
        },
        {
            "children" : [
                10,
                11
            ],
            "name" : "Plane.003_5",
            "rotation" : [
                -0.017189476639032364,
                -0.10449641197919846,
                0.12124533206224442,
                0.986957311630249
            ],
            "translation" : [
                0.05375222861766815,
                0.6887005567550659,
                -0.0038251038640737534
            ]
        },
        {
            "mesh" : 8,
            "name" : "Mesh_3"
        },
        {
            "mesh" : 9,
            "name" : "Mesh_4"
        },
        {
            "children" : [
                13,
                14
            ],
            "name" : "Plane_2",
            "rotation" : [
                -0.0034310119226574898,
                -0.15500804781913757,
                0.02186138741672039,
                0.9876653552055359
            ],
            "translation" : [
                -0.04301035776734352,
                0.7169210314750671,
                0
            ]
        },
        {
            "children" : [
                2,
                3,
                6,
                9,
                12,
                15
            ],
            "name" : "Cube_6",
            "rotation" : [
                0,
                -0.05049850419163704,
                0,
                0.9987242221832275
            ]
        },
        {
            "children" : [
                0,
                16
            ],
            "name" : "GLTF_SceneRootNode",
            "rotation" : [
                0.7071068286895752,
                0,
                0,
                0.7071068286895752
            ]
        },
        {
            "children" : [
                17
            ],
            "name" : "root"
        },
        {
            "children" : [
                18
            ],
            "name" : "RootNode (model correction matrix)"
        },
        {
            "children" : [
                19
            ],
            "name" : "RootNode (gltf orientation matrix)",
            "rotation" : [
                -0.7071068286895752,
                0,
                0,
                0.7071068286895752
            ],
            "scale" : [
                55.138389587402344,
                54.39470672607422,
                56.69992446899414
            ],
            "translation" : [
                -3.0861096382141113,
                -3.0167622566223145,
                -1.597778081893921
            ]
        },
        {
            "name" : "Light.001",
            "rotation" : [
                0.16907575726509094,
                0.7558803558349609,
                -0.27217137813568115,
                0.570947527885437
            ],
            "scale" : [
                1.86166512966156,
                2.5534143447875977,
                2.5321056842803955
            ],
            "translation" : [
                4.46291971206665,
                7.99852180480957,
                -3.459834575653076
            ]
        },
        {
            "name" : "Camera.001",
            "rotation" : [
                0.483536034822464,
                0.33687159419059753,
                -0.20870360732078552,
                0.7804827094078064
            ],
            "scale" : [
                1.8519567251205444,
                2.326245069503784,
                2.3606150150299072
            ],
            "translation" : [
                10.542238235473633,
                6.234332084655762,
                11.228487014770508
            ]
        },
        {
            "name" : "Light",
            "rotation" : [
                0.16907575726509094,
                0.7558803558349609,
                -0.27217137813568115,
                0.570947527885437
            ],
            "scale" : [
                0.7887810468673706,
                0.8354107141494751,
                0.8226596713066101
            ],
            "translation" : [
                4.181576728820801,
                5.649879455566406,
                -0.29163694381713867
            ]
        },
        {
            "name" : "Camera",
            "rotation" : [
                0.483536034822464,
                0.33687159419059753,
                -0.20870360732078552,
                0.7804827094078064
            ],
            "scale" : [
                0.7884101271629333,
                0.8094938397407532,
                0.8384673595428467
            ],
            "translation" : [
                6.769648551940918,
                4.858370780944824,
                5.961437702178955
            ]
        }
    ],
    "materials" : [
        {
            "doubleSided" : true,
            "name" : "soil",
            "pbrMetallicRoughness" : {
                "baseColorFactor" : [
                    0.10368531197309494,
                    0.0316832959651947,
                    0.01803075708448887,
                    1
                ],
                "metallicFactor" : 0,
                "roughnessFactor" : 0.7799721956253052
            }
        },
        {
            "name" : "material",
            "pbrMetallicRoughness" : {
                "baseColorFactor" : [
                    0.7325329780578613,
                    0.5474224090576172,
                    0.1780206859111786,
                    1
                ],
                "metallicFactor" : 0,
                "roughnessFactor" : 0.28690969944000244
            }
        },
        {
            "name" : "plant",
            "pbrMetallicRoughness" : {
                "baseColorFactor" : [
                    0.15759100019931793,
                    0.46104100346565247,
                    0.0236820001155138,
                    1
                ],
                "metallicFactor" : 0,
                "roughnessFactor" : 0.3604402542114258
            }
        },
        {
            "doubleSided" : true,
            "name" : "plant_rim",
            "pbrMetallicRoughness" : {
                "baseColorFactor" : [
                    0.8876410126686096,
                    1,
                    0.43439799547195435,
                    1
                ],
                "metallicFactor" : 0,
                "roughnessFactor" : 0.4577230215072632
            }
        }
    ],
    "meshes" : [
        {
            "name" : "Mesh_2",
            "primitives" : [
                {
                    "attributes" : {
                        "POSITION" : 0,
                        "NORMAL" : 1,
                        "TEXCOORD_0" : 2
                    },
                    "indices" : 3,
                    "material" : 0
                }
            ]
        },
        {
            "name" : "Mesh_1",
            "primitives" : [
                {
                    "attributes" : {
                        "POSITION" : 4,
                        "NORMAL" : 5,
                        "TEXCOORD_0" : 6
                    },
                    "indices" : 7,
                    "material" : 1
                }
            ]
        },
        {
            "name" : "Mesh_5",
            "primitives" : [
                {
                    "attributes" : {
                        "POSITION" : 8,
                        "NORMAL" : 9,
                        "TEXCOORD_0" : 10
                    },
                    "indices" : 11,
                    "material" : 2
                }
            ]
        },
        {
            "name" : "Mesh_6",
            "primitives" : [
                {
                    "attributes" : {
                        "POSITION" : 12,
                        "NORMAL" : 13,
                        "TEXCOORD_0" : 14
                    },
                    "indices" : 15,
                    "material" : 3
                }
            ]
        },
        {
            "name" : "Mesh_7",
            "primitives" : [
                {
                    "attributes" : {
                        "POSITION" : 16,
                        "NORMAL" : 17,
                        "TEXCOORD_0" : 18
                    },
                    "indices" : 11,
                    "material" : 2
                }
            ]
        },
        {
            "name" : "Mesh_8",
            "primitives" : [
                {
                    "attributes" : {
                        "POSITION" : 19,
                        "NORMAL" : 20,
                        "TEXCOORD_0" : 21
                    },
                    "indices" : 22,
                    "material" : 3
                }
            ]
        },
        {
            "name" : "Mesh_10",
            "primitives" : [
                {
                    "attributes" : {
                        "POSITION" : 23,
                        "NORMAL" : 24,
                        "TEXCOORD_0" : 25
                    },
                    "indices" : 22,
                    "material" : 3
                }
            ]
        },
        {
            "name" : "Mesh_9",
            "primitives" : [
                {
                    "attributes" : {
                        "POSITION" : 26,
                        "NORMAL" : 27,
                        "TEXCOORD_0" : 28
                    },
                    "indices" : 11,
                    "material" : 2
                }
            ]
        },
        {
            "name" : "Mesh_3",
            "primitives" : [
                {
                    "attributes" : {
                        "POSITION" : 29,
                        "NORMAL" : 30,
                        "TEXCOORD_0" : 31
                    },
                    "indices" : 11,
                    "material" : 2
                }
            ]
        },
        {
            "name" : "Mesh_4",
            "primitives" : [
                {
                    "attributes" : {
                        "POSITION" : 32,
                        "NORMAL" : 33,
                        "TEXCOORD_0" : 34
                    },
                    "indices" : 35,
                    "material" : 3
                }
            ]
        }
    ],
    "accessors" : [
        {
            "bufferView" : 0,
            "componentType" : 5126,
            "count" : 70,
            "max" : [
                0.5831360220909119,
                0,
                0.5831360220909119
            ],
            "min" : [
                -0.5831360220909119,
                0,
                -0.5831360220909119
            ],
            "type" : "VEC3"
        },
        {
            "bufferView" : 1,
            "componentType" : 5126,
            "count" : 70,
            "type" : "VEC3"
        },
        {
            "bufferView" : 2,
            "componentType" : 5126,
            "count" : 70,
            "type" : "VEC2"
        },
        {
            "bufferView" : 3,
            "componentType" : 5123,
            "count" : 192,
            "type" : "SCALAR"
        },
        {
            "bufferView" : 4,
            "componentType" : 5126,
            "count" : 4650,
            "max" : [
                0.6657846570014954,
                1.0000001192092896,
                0.6657846570014954
            ],
            "min" : [
                -0.6657846570014954,
                0,
                -0.6657846570014954
            ],
            "type" : "VEC3"
        },
        {
            "bufferView" : 5,
            "componentType" : 5126,
            "count" : 4650,
            "type" : "VEC3"
        },
        {
            "bufferView" : 6,
            "componentType" : 5126,
            "count" : 4650,
            "type" : "VEC2"
        },
        {
            "bufferView" : 7,
            "componentType" : 5123,
            "count" : 18432,
            "type" : "SCALAR"
        },
        {
            "bufferView" : 8,
            "componentType" : 5126,
            "count" : 948,
            "max" : [
                0.13256652653217316,
                1.739432454109192,
                0.2620313763618469
            ],
            "min" : [
                -0.16787253320217133,
                0.1113157570362091,
                -0.2620313763618469
            ],
            "type" : "VEC3"
        },
        {
            "bufferView" : 9,
            "componentType" : 5126,
            "count" : 948,
            "type" : "VEC3"
        },
        {
            "bufferView" : 10,
            "componentType" : 5126,
            "count" : 948,
            "type" : "VEC2"
        },
        {
            "bufferView" : 11,
            "componentType" : 5123,
            "count" : 4608,
            "type" : "SCALAR"
        },
        {
            "bufferView" : 12,
            "componentType" : 5126,
            "count" : 820,
            "max" : [
                0.15949182212352753,
                1.8139609098434448,
                0.29545778036117554
            ],
            "min" : [
                -0.1669946014881134,
                0.03383965045213699,
                -0.29545775055885315
            ],
            "type" : "VEC3"
        },
        {
            "bufferView" : 13,
            "componentType" : 5126,
            "count" : 820,
            "type" : "VEC3"
        },
        {
            "bufferView" : 14,
            "componentType" : 5126,
            "count" : 820,
            "type" : "VEC2"
        },
        {
            "bufferView" : 15,
            "componentType" : 5123,
            "count" : 3840,
            "type" : "SCALAR"
        },
        {
            "bufferView" : 16,
            "componentType" : 5126,
            "count" : 948,
            "max" : [
                0.20847749710083008,
                1.0209146738052368,
                0.1507159024477005
            ],
            "min" : [
                -0.08524472266435623,
                0.033887192606925964,
                -0.1507159024477005
            ],
            "type" : "VEC3"
        },
        {
            "bufferView" : 17,
            "componentType" : 5126,
            "count" : 948,
            "type" : "VEC3"
        },
        {
            "bufferView" : 18,
            "componentType" : 5126,
            "count" : 948,
            "type" : "VEC2"
        },
        {
            "bufferView" : 19,
            "componentType" : 5126,
            "count" : 818,
            "max" : [
                0.236502006649971,
                1.0655373334884644,
                0.16619285941123962
            ],
            "min" : [
                -0.07664065808057785,
                -0.002390341367572546,
                -0.16619285941123962
            ],
            "type" : "VEC3"
        },
        {
            "bufferView" : 20,
            "componentType" : 5126,
            "count" : 818,
            "type" : "VEC3"
        },
        {
            "bufferView" : 21,
            "componentType" : 5126,
            "count" : 818,
            "type" : "VEC2"
        },
        {
            "bufferView" : 22,
            "componentType" : 5123,
            "count" : 3840,
            "type" : "SCALAR"
        },
        {
            "bufferView" : 23,
            "componentType" : 5126,
            "count" : 818,
            "max" : [
                0.09508486092090607,
                1.8352954387664795,
                0.44450077414512634
            ],
            "min" : [
                -0.8028444647789001,
                0.032180313020944595,
                -0.44450080394744873
            ],
            "type" : "VEC3"
        },
        {
            "bufferView" : 24,
            "componentType" : 5126,
            "count" : 818,
            "type" : "VEC3"
        },
        {
            "bufferView" : 25,
            "componentType" : 5126,
            "count" : 818,
            "type" : "VEC2"
        },
        {
            "bufferView" : 26,
            "componentType" : 5126,
            "count" : 948,
            "max" : [
                0.06933606415987015,
                1.8043986558914185,
                0.39845800399780273
            ],
            "min" : [
                -0.7471396923065186,
                0.121805839240551,
                -0.39845800399780273
            ],
            "type" : "VEC3"
        },
        {
            "bufferView" : 27,
            "componentType" : 5126,
            "count" : 948,
            "type" : "VEC3"
        },
        {
            "bufferView" : 28,
            "componentType" : 5126,
            "count" : 948,
            "type" : "VEC2"
        },
        {
            "bufferView" : 29,
            "componentType" : 5126,
            "count" : 948,
            "max" : [
                0.06520641595125198,
                1.4432361125946045,
                0.18333524465560913
            ],
            "min" : [
                -0.10837709903717041,
                0.07917805761098862,
                -0.18333524465560913
            ],
            "type" : "VEC3"
        },
        {
            "bufferView" : 30,
            "componentType" : 5126,
            "count" : 948,
            "type" : "VEC3"
        },
        {
            "bufferView" : 31,
            "componentType" : 5126,
            "count" : 948,
            "type" : "VEC2"
        },
        {
            "bufferView" : 32,
            "componentType" : 5126,
            "count" : 820,
            "max" : [
                0.0685923621058464,
                1.5060514211654663,
                0.2075696438550949
            ],
            "min" : [
                -0.10253018140792847,
                0.017942043021321297,
                -0.20756962895393372
            ],
            "type" : "VEC3"
        },
        {
            "bufferView" : 33,
            "componentType" : 5126,
            "count" : 820,
            "type" : "VEC3"
        },
        {
            "bufferView" : 34,
            "componentType" : 5126,
            "count" : 820,
            "type" : "VEC2"
        },
        {
            "bufferView" : 35,
            "componentType" : 5123,
            "count" : 3840,
            "type" : "SCALAR"
        }
    ],
    "bufferViews" : [
        {
            "buffer" : 0,
            "byteLength" : 840,
            "byteOffset" : 0
        },
        {
            "buffer" : 0,
            "byteLength" : 840,
            "byteOffset" : 840
        },
        {
            "buffer" : 0,
            "byteLength" : 560,
            "byteOffset" : 1680
        },
        {
            "buffer" : 0,
            "byteLength" : 384,
            "byteOffset" : 2240
        },
        {
            "buffer" : 0,
            "byteLength" : 55800,
            "byteOffset" : 2624
        },
        {
            "buffer" : 0,
            "byteLength" : 55800,
            "byteOffset" : 58424
        },
        {
            "buffer" : 0,
            "byteLength" : 37200,
            "byteOffset" : 114224
        },
        {
            "buffer" : 0,
            "byteLength" : 36864,
            "byteOffset" : 151424
        },
        {
            "buffer" : 0,
            "byteLength" : 11376,
            "byteOffset" : 188288
        },
        {
            "buffer" : 0,
            "byteLength" : 11376,
            "byteOffset" : 199664
        },
        {
            "buffer" : 0,
            "byteLength" : 7584,
            "byteOffset" : 211040
        },
        {
            "buffer" : 0,
            "byteLength" : 9216,
            "byteOffset" : 218624
        },
        {
            "buffer" : 0,
            "byteLength" : 9840,
            "byteOffset" : 227840
        },
        {
            "buffer" : 0,
            "byteLength" : 9840,
            "byteOffset" : 237680
        },
        {
            "buffer" : 0,
            "byteLength" : 6560,
            "byteOffset" : 247520
        },
        {
            "buffer" : 0,
            "byteLength" : 7680,
            "byteOffset" : 254080
        },
        {
            "buffer" : 0,
            "byteLength" : 11376,
            "byteOffset" : 261760
        },
        {
            "buffer" : 0,
            "byteLength" : 11376,
            "byteOffset" : 273136
        },
        {
            "buffer" : 0,
            "byteLength" : 7584,
            "byteOffset" : 284512
        },
        {
            "buffer" : 0,
            "byteLength" : 9816,
            "byteOffset" : 292096
        },
        {
            "buffer" : 0,
            "byteLength" : 9816,
            "byteOffset" : 301912
        },
        {
            "buffer" : 0,
            "byteLength" : 6544,
            "byteOffset" : 311728
        },
        {
            "buffer" : 0,
            "byteLength" : 7680,
            "byteOffset" : 318272
        },
        {
            "buffer" : 0,
            "byteLength" : 9816,
            "byteOffset" : 325952
        },
        {
            "buffer" : 0,
            "byteLength" : 9816,
            "byteOffset" : 335768
        },
        {
            "buffer" : 0,
            "byteLength" : 6544,
            "byteOffset" : 345584
        },
        {
            "buffer" : 0,
            "byteLength" : 11376,
            "byteOffset" : 352128
        },
        {
            "buffer" : 0,
            "byteLength" : 11376,
            "byteOffset" : 363504
        },
        {
            "buffer" : 0,
            "byteLength" : 7584,
            "byteOffset" : 374880
        },
        {
            "buffer" : 0,
            "byteLength" : 11376,
            "byteOffset" : 382464
        },
        {
            "buffer" : 0,
            "byteLength" : 11376,
            "byteOffset" : 393840
        },
        {
            "buffer" : 0,
            "byteLength" : 7584,
            "byteOffset" : 405216
        },
        {
            "buffer" : 0,
            "byteLength" : 9840,
            "byteOffset" : 412800
        },
        {
            "buffer" : 0,
            "byteLength" : 9840,
            "byteOffset" : 422640
        },
        {
            "buffer" : 0,
            "byteLength" : 6560,
            "byteOffset" : 432480
        },
        {
            "buffer" : 0,
            "byteLength" : 7680,
            "byteOffset" : 439040
        }
    ],
    "buffers" : [
        {
            "byteLength" : 446720,
            "uri" : "data:application/octet-stream;base64,"
        }
    ]
}
